<svg id="Capa_1" data-name="Capa 1" xmlns="http://www.w3.org/2000/svg" viewBox="0 0 1114.17 584.46"><defs><style>.cls-1{fill:#fff;}</style></defs><title>logoppayaz</title><path class="cls-1" d="M791,657.39a1.4,1.4,0,0,1,1.08.36,1.51,1.51,0,0,1,.42,1.1c0,1,0,1.45.08,2.42a1.65,1.65,0,0,1-.29,1,1.11,1.11,0,0,1-.95.47,4.21,4.21,0,0,0-1.2.25,3.8,3.8,0,0,0-1.32.79,4.51,4.51,0,0,0-1.07,1.47,5.19,5.19,0,0,0-.4,2.3l.15,5.95,4-.11a1.63,1.63,0,0,1,1.09.31,1.46,1.46,0,0,1,.44,1.16l0,1.79a1.7,1.7,0,0,1-.36,1.22,1.4,1.4,0,0,1-1.08.47l-4,.11c.27,10.81.4,16.21.67,27a1.35,1.35,0,0,1-.48,1.14,1.88,1.88,0,0,1-1.12.41l-2.88.06a1.4,1.4,0,0,1-1.14-.41,1.65,1.65,0,0,1-.37-1.07c-.19-10.81-.28-16.22-.47-27l-2.84,0a1.53,1.53,0,0,1-1.13-.43,1.67,1.67,0,0,1-.45-1.2l0-1.8a1.44,1.44,0,0,1,.42-1.17,1.76,1.76,0,0,1,1.11-.36l2.82,0-.1-6a11.07,11.07,0,0,1,.59-3.88,9.79,9.79,0,0,1,1.83-3.23,8.89,8.89,0,0,1,3-2.23A9.75,9.75,0,0,1,791,657.39Z" transform="translate(-122.09 -122.64)"/><path class="cls-1" d="M810.54,673.76a8.47,8.47,0,0,1,.94-1.48,9.13,9.13,0,0,1,1.53-1.51,9.89,9.89,0,0,1,2.09-1.22,7.8,7.8,0,0,1,2.63-.6,28.61,28.61,0,0,1,2.87-.06,14.79,14.79,0,0,1,2.46.29,12.41,12.41,0,0,1,2.29.72,18.73,18.73,0,0,1,2.36,1.24,9.21,9.21,0,0,1,.83.6,1.26,1.26,0,0,1,.5.9,1.14,1.14,0,0,1-.11.58l-1.55,2.72a1.14,1.14,0,0,1-.8.54.75.75,0,0,1-.45-.12l-.53-.32a15.3,15.3,0,0,0-3.7-1.5,12,12,0,0,0-3.72-.31,7.82,7.82,0,0,0-2.82.71,7.61,7.61,0,0,0-2.33,1.69,7.8,7.8,0,0,0-1.56,2.57,8.21,8.21,0,0,0-.46,3.35c.47,8.9.71,13.36,1.19,22.26,0,.84-.39,1.28-1.29,1.33l-3.21.16c-.94,0-1.44-.35-1.47-1.19l-1.56-33.63a1.16,1.16,0,0,1,.34-.92,1.37,1.37,0,0,1,.9-.39L809,670a1.33,1.33,0,0,1,1,.32,1.23,1.23,0,0,1,.41.86C810.46,672.22,810.48,672.74,810.54,673.76Z" transform="translate(-122.09 -122.64)"/><path class="cls-1" d="M870.41,692.56a6.39,6.39,0,0,1,.54-.5,1.2,1.2,0,0,1,.62-.28,1.16,1.16,0,0,1,.94.39l1.15,1.12c.29.29.54.52.71.68s.33.33.43.41a1.65,1.65,0,0,1,.28.32.88.88,0,0,1,.15.4,1.12,1.12,0,0,1-.17.69,4.11,4.11,0,0,1-.79,1,23.66,23.66,0,0,1-2.5,2.09,20.33,20.33,0,0,1-2.8,1.71,19.53,19.53,0,0,1-3.18,1.27,19.82,19.82,0,0,1-3.62.74,20.19,20.19,0,0,1-5.33-.09,20.63,20.63,0,0,1-5-1.39,20.34,20.34,0,0,1-4.37-2.53,19.08,19.08,0,0,1-3.54-3.47,17.32,17.32,0,0,1-2.46-4.25,16.48,16.48,0,0,1-1.17-4.85,18.51,18.51,0,0,1,.23-5,18.74,18.74,0,0,1,4.11-8.68,19.28,19.28,0,0,1,3.62-3.3,20,20,0,0,1,4.46-2.37,21.23,21.23,0,0,1,5.21-1.25,20.31,20.31,0,0,1,4.41,0,21.66,21.66,0,0,1,4.32.89,20.09,20.09,0,0,1,4,1.8,18.16,18.16,0,0,1,3.53,2.7,16.54,16.54,0,0,1,3.55,5.15,24.88,24.88,0,0,1,1.85,7,1.18,1.18,0,0,1-1.13,1.5c-10.5,1.46-21.06,2.7-31.62,3.7a12.54,12.54,0,0,0,2.21,4,14.6,14.6,0,0,0,3.43,3,14.15,14.15,0,0,0,4.26,1.81,13.16,13.16,0,0,0,4.68.3,13.9,13.9,0,0,0,3-.65,12.22,12.22,0,0,0,2.36-1.08,13.15,13.15,0,0,0,1.91-1.38c.57-.5,1.12-1,1.65-1.54Zm-18.78-19a14.51,14.51,0,0,0-3.5,4,13,13,0,0,0-1.76,5.06c10.81-1.05,16.2-1.67,26.94-3.08a10.88,10.88,0,0,0-2.08-4.06,12.15,12.15,0,0,0-3.41-2.9,14.48,14.48,0,0,0-4.31-1.61,15.11,15.11,0,0,0-4.75-.2,15.5,15.5,0,0,0-3.73.9A13.22,13.22,0,0,0,851.63,673.51Z" transform="translate(-122.09 -122.64)"/><path class="cls-1" d="M891.6,690.86c-.14-.27-.24-.49-.31-.66a.67.67,0,0,1,0-.45.79.79,0,0,1,.19-.36,2,2,0,0,1,.42-.36l2.66-1.67a1.13,1.13,0,0,1,1.18-.12,2.52,2.52,0,0,1,.8.76,5,5,0,0,0,1.73,1.7,9.34,9.34,0,0,0,2.34,1,11.75,11.75,0,0,0,2.45.42,9.49,9.49,0,0,0,2.06-.07,11.34,11.34,0,0,0,2.47-.74,10.32,10.32,0,0,0,2.44-1.4,6.61,6.61,0,0,0,1.74-2,4.18,4.18,0,0,0-.81-4.87,6.18,6.18,0,0,0-2.28-1.18,13.68,13.68,0,0,0-2.93-.49c-1.06-.07-2.12-.15-3.17-.24a27.65,27.65,0,0,1-5-.86,15.07,15.07,0,0,1-3.91-1.69,8.86,8.86,0,0,1-2.69-2.58,8.74,8.74,0,0,1-1.33-3.58,9.28,9.28,0,0,1,.28-4.25,9.61,9.61,0,0,1,2-3.58,12.12,12.12,0,0,1,3.53-2.67,18.59,18.59,0,0,1,8.75-1.81,10.39,10.39,0,0,1,3.05.66,11.35,11.35,0,0,1,2.63,1.5c.83.63,1.72,1.37,2.65,2.22a2.18,2.18,0,0,1,.56.9,1,1,0,0,1-.38.89l-2,2.07c-.41.33-.74.45-1,.38a2.46,2.46,0,0,1-.87-.51L907.25,666a8,8,0,0,0-1.67-1,7.46,7.46,0,0,0-2-.55,8.8,8.8,0,0,0-2.52.1,11.51,11.51,0,0,0-2.43.69,7.13,7.13,0,0,0-2,1.25,5,5,0,0,0-1.26,1.81,4.38,4.38,0,0,0-.22,2.33,2.79,2.79,0,0,0,1,1.7,7.49,7.49,0,0,0,2,1.21,13,13,0,0,0,2.57.76,19.9,19.9,0,0,0,2.64.34,31.44,31.44,0,0,1,5.39.69,16.59,16.59,0,0,1,4.38,1.56,9.7,9.7,0,0,1,3.13,2.59,8.53,8.53,0,0,1,1.66,3.8,9.34,9.34,0,0,1-.22,4.57,9.85,9.85,0,0,1-2.28,3.83,13.78,13.78,0,0,1-4.05,2.88,20.48,20.48,0,0,1-5.47,1.69,18.17,18.17,0,0,1-4,.2,15.39,15.39,0,0,1-4-.77,13.8,13.8,0,0,1-3.61-1.83A9.45,9.45,0,0,1,891.6,690.86Z" transform="translate(-122.09 -122.64)"/><path class="cls-1" d="M931.49,657.81a14,14,0,0,1,1.36-2.1,10.13,10.13,0,0,1,1.78-1.74,11.58,11.58,0,0,1,2.39-1.36,18,18,0,0,1,3.26-1,14.76,14.76,0,0,1,6.12-.15,14.47,14.47,0,0,1,5.3,2.16,15.15,15.15,0,0,1,4.1,4.08,16.62,16.62,0,0,1,2.46,5.61c1.82,7.52,2.73,11.28,4.54,18.8a1.88,1.88,0,0,1-.18,1.54,1.92,1.92,0,0,1-1.21.78l-2.21.53a1.84,1.84,0,0,1-1.51-.08,2.38,2.38,0,0,1-.64-1.32c-1.77-7.56-2.65-11.34-4.42-18.91a10.62,10.62,0,0,0-1.39-3.26,10.48,10.48,0,0,0-2.49-2.74,9.53,9.53,0,0,0-3.44-1.64,9.12,9.12,0,0,0-4.22,0,10.6,10.6,0,0,0-3.19,1.29,9.94,9.94,0,0,0-2.66,2.34,8.85,8.85,0,0,0-1.6,3.22,8.16,8.16,0,0,0-.06,3.94l4.3,20.6c.17.82-.18,1.32-1.06,1.5l-3.1.64c-.94.19-1.49-.13-1.66-.95q-4.38-21.76-8.77-43.55a1.18,1.18,0,0,1,.19-1,1.27,1.27,0,0,1,.81-.52l3-.6a1.26,1.26,0,0,1,1,.16,1.22,1.22,0,0,1,.54.79C929.88,650.08,930.41,652.66,931.49,657.81Z" transform="translate(-122.09 -122.64)"/><path class="cls-1" d="M997.49,642.16a19.41,19.41,0,0,1,4.49-5.49,18.67,18.67,0,0,1,6.48-3.53,19.75,19.75,0,0,1,5-.91,20.36,20.36,0,0,1,4.94.38,19.94,19.94,0,0,1,8.75,4.15,18.52,18.52,0,0,1,3.33,3.57,17.43,17.43,0,0,1,2.26,4.45,17.07,17.07,0,0,1,.94,4.9,17.89,17.89,0,0,1-.47,4.89,19.4,19.4,0,0,1-1.76,4.61,20.7,20.7,0,0,1-2.92,4.08,20.27,20.27,0,0,1-8.8,5.55,19,19,0,0,1-14.64-1.12l4.17,13.92a1.22,1.22,0,0,1-.12.95,1.5,1.5,0,0,1-.89.66l-3.1.91a1.43,1.43,0,0,1-1-.06,1.12,1.12,0,0,1-.64-.76q-6.24-21.43-12.49-42.87c-.23-.8.09-1.33,1-1.59l2.89-.85a1.13,1.13,0,0,1,1.6.83C996.9,640.16,997.1,640.83,997.49,642.16ZM1001,655a12.23,12.23,0,0,0,2.5,4.58,13.85,13.85,0,0,0,4.08,3.27,14.32,14.32,0,0,0,5.08,1.55,13,13,0,0,0,5.5-.56,12.79,12.79,0,0,0,4.77-2.7,13.95,13.95,0,0,0,4.66-9.2,12.8,12.8,0,0,0-3.24-9.69,13.82,13.82,0,0,0-4.07-3.13,14.44,14.44,0,0,0-4.95-1.44,13.11,13.11,0,0,0-5.29.56,13,13,0,0,0-4.68,2.61,14.25,14.25,0,0,0-3.25,4,14.09,14.09,0,0,0-1.55,4.92A12.55,12.55,0,0,0,1001,655Z" transform="translate(-122.09 -122.64)"/><path class="cls-1" d="M1074.19,639.92c.12-.21.25-.42.39-.62a1.31,1.31,0,0,1,.54-.43,1.18,1.18,0,0,1,1,.15l1.39.79c.35.21.65.36.86.48s.4.23.51.28a1.61,1.61,0,0,1,.36.24,1,1,0,0,1,.24.35,1.16,1.16,0,0,1,0,.72A4.45,4.45,0,0,1,1079,643a24.72,24.72,0,0,1-1.88,2.64,21.06,21.06,0,0,1-2.27,2.36,19.44,19.44,0,0,1-2.74,2,20.28,20.28,0,0,1-3.3,1.63,20.28,20.28,0,0,1-10.32,1.16,20.37,20.37,0,0,1-4.85-1.34,19,19,0,0,1-4.29-2.47,18.11,18.11,0,0,1-3.45-3.49,17.06,17.06,0,0,1-2.35-4.4,18.26,18.26,0,0,1-1-4.89,18.77,18.77,0,0,1,4.39-13.53,20.14,20.14,0,0,1,3.7-3.42,20.81,20.81,0,0,1,4.69-2.52,19.88,19.88,0,0,1,4.25-1.13,20.83,20.83,0,0,1,4.39-.23,19.51,19.51,0,0,1,4.33.73,18.07,18.07,0,0,1,4.09,1.71,16.82,16.82,0,0,1,4.73,4.09,25,25,0,0,1,3.56,6.33,1.18,1.18,0,0,1-.71,1.74q-14.62,6.07-29.52,11.53a12.3,12.3,0,0,0,3.14,3.33,14.3,14.3,0,0,0,4.08,2.08,13.67,13.67,0,0,0,4.56.68,12.91,12.91,0,0,0,4.58-.89,14.08,14.08,0,0,0,2.72-1.37,13.42,13.42,0,0,0,2-1.65,13.12,13.12,0,0,0,1.49-1.81c.42-.63.82-1.27,1.2-1.91Zm-22.92-13.7a14.28,14.28,0,0,0-2.35,4.79,12.79,12.79,0,0,0-.41,5.32c10.13-3.73,15.17-5.68,25.17-9.75a11,11,0,0,0-3-3.41,12.52,12.52,0,0,0-4-1.94,14.36,14.36,0,0,0-4.56-.47,14.89,14.89,0,0,0-4.63,1,15.58,15.58,0,0,0-3.36,1.81A13.3,13.3,0,0,0,1051.27,626.22Z" transform="translate(-122.09 -122.64)"/><path class="cls-1" d="M1091,622.4a17.25,17.25,0,0,1-1.44-7.28A20,20,0,0,1,1091,608a20.38,20.38,0,0,1,4-6.19,19.18,19.18,0,0,1,6.15-4.43,19.53,19.53,0,0,1,4.87-1.53,19.87,19.87,0,0,1,5-.24,20.13,20.13,0,0,1,4.81,1,19.61,19.61,0,0,1,4.42,2.08,18.73,18.73,0,0,1,3.75,3.14,17.21,17.21,0,0,1,2.81,4.13,17,17,0,0,1,1.54,4.75,17.43,17.43,0,0,1,.13,4.89,19.21,19.21,0,0,1-1.19,4.79,20.25,20.25,0,0,1-2.4,4.4,20.88,20.88,0,0,1-3.53,3.76,20.84,20.84,0,0,1-9.62,4.44,20.82,20.82,0,0,1-5.15.24,19.79,19.79,0,0,1-4.91-1,18.52,18.52,0,0,1-8-5.48A17.07,17.07,0,0,1,1091,622.4Zm5.47-2.39a12.41,12.41,0,0,0,3.06,4.25,13.37,13.37,0,0,0,4.44,2.67,14.11,14.11,0,0,0,5.21.84,13.78,13.78,0,0,0,9.8-4.52,14,14,0,0,0,2.73-4.5,13.5,13.5,0,0,0,.82-5.09,12.82,12.82,0,0,0-4.43-9.22,14.19,14.19,0,0,0-9.59-3.52,12.5,12.5,0,0,0-5.19,1.2,12.67,12.67,0,0,0-4.32,3.19,14.42,14.42,0,0,0-2.7,4.48,14.27,14.27,0,0,0-.9,5.12A12.54,12.54,0,0,0,1096.42,620Z" transform="translate(-122.09 -122.64)"/><path class="cls-1" d="M1137.55,585.37a19.39,19.39,0,0,1,3.4-6.24,18.77,18.77,0,0,1,5.73-4.7,19.52,19.52,0,0,1,4.79-1.85,20.82,20.82,0,0,1,4.94-.57,19.89,19.89,0,0,1,4.87.63,20.21,20.21,0,0,1,4.54,1.78,18.26,18.26,0,0,1,4,2.88,17.45,17.45,0,0,1,3.07,3.94,17.22,17.22,0,0,1,1.84,4.64,17.87,17.87,0,0,1,.44,4.89,18.9,18.9,0,0,1-.88,4.87,20.1,20.1,0,0,1-2.11,4.57,20.42,20.42,0,0,1-3.29,4,21,21,0,0,1-4.34,3.13,19.26,19.26,0,0,1-14.64,1.68l6.7,12.88a1.15,1.15,0,0,1,.06,1,1.47,1.47,0,0,1-.75.81l-2.88,1.49a1.51,1.51,0,0,1-1,.13,1.13,1.13,0,0,1-.77-.63q-10.15-19.87-20.32-39.76-.57-1.11.66-1.74l2.69-1.39a1.12,1.12,0,0,1,1.72.52Zm5.88,11.93a12.35,12.35,0,0,0,3.31,4,14.09,14.09,0,0,0,4.64,2.45,14.39,14.39,0,0,0,5.29.56,13.54,13.54,0,0,0,9.53-5.15,14.4,14.4,0,0,0,2.4-4.73,13.85,13.85,0,0,0,.46-5.21,12.41,12.41,0,0,0-1.56-5,12.72,12.72,0,0,0-3.44-3.93,13.53,13.53,0,0,0-4.6-2.3,14.08,14.08,0,0,0-5.15-.47,13.45,13.45,0,0,0-9.23,5,14.47,14.47,0,0,0-2.45,4.57,14,14,0,0,0-.61,5.13A12.51,12.51,0,0,0,1143.43,597.3Z" transform="translate(-122.09 -122.64)"/><path class="cls-1" d="M1198,586a1.16,1.16,0,0,1-.51,1.77l-2.73,1.63c-.83.5-1.45.39-1.88-.33L1170.21,551a1.1,1.1,0,0,1-.14-1,1.3,1.3,0,0,1,.6-.76l2.59-1.55a1.3,1.3,0,0,1,1-.19,1.19,1.19,0,0,1,.76.57Z" transform="translate(-122.09 -122.64)"/><path class="cls-1" d="M1230.62,556.79a5.23,5.23,0,0,1,.26-.68,1.22,1.22,0,0,1,.43-.54,1.19,1.19,0,0,1,1-.08l1.53.48,1,.28.57.16a1.59,1.59,0,0,1,.4.16.85.85,0,0,1,.31.29,1.12,1.12,0,0,1,.16.7,4.59,4.59,0,0,1-.27,1.2,26.56,26.56,0,0,1-1.29,3,21.09,21.09,0,0,1-1.74,2.81,20.24,20.24,0,0,1-2.27,2.59,20.71,20.71,0,0,1-2.9,2.31,21,21,0,0,1-4.81,2.36,20.62,20.62,0,0,1-5.09,1,20.31,20.31,0,0,1-5.06-.25,19.46,19.46,0,0,1-4.73-1.49,17.45,17.45,0,0,1-4.13-2.66,16.47,16.47,0,0,1-3.24-3.8,18.32,18.32,0,0,1-2.07-4.56,18.91,18.91,0,0,1-.76-4.8,18.57,18.57,0,0,1,.5-4.8,19.3,19.3,0,0,1,1.72-4.59,20.79,20.79,0,0,1,2.92-4.15,21.51,21.51,0,0,1,8-5.53,22,22,0,0,1,4.27-1.18,19.78,19.78,0,0,1,4.42-.23,18.23,18.23,0,0,1,4.39.78,16.76,16.76,0,0,1,5.52,3,24.86,24.86,0,0,1,4.83,5.41,1.19,1.19,0,0,1-.33,1.86c-8.73,6.1-17.63,12-26.62,17.73a12.42,12.42,0,0,0,3.8,2.58,14.55,14.55,0,0,0,4.44,1.15,13.92,13.92,0,0,0,4.63-.33,13.12,13.12,0,0,0,4.33-1.87,14.58,14.58,0,0,0,2.38-1.94,12.43,12.43,0,0,0,1.62-2,12.3,12.3,0,0,0,1.08-2.1c.29-.71.55-1.41.78-2.12Zm-25.44-8.4a14.44,14.44,0,0,0-1.31,5.2,13,13,0,0,0,.73,5.3c9.17-5.86,13.72-8.87,22.71-15a10.88,10.88,0,0,0-3.71-2.67,12.24,12.24,0,0,0-4.37-1,14.78,14.78,0,0,0-4.59.53,15.37,15.37,0,0,0-4.34,2,15.57,15.57,0,0,0-2.93,2.51A13.36,13.36,0,0,0,1205.18,548.39Z" transform="translate(-122.09 -122.64)"/><path class="cls-1" d="M122.09,302.87a10.7,10.7,0,0,1,1.21-4.94,11,11,0,0,1,3.65-4.09q35.31-24.18,72.28-45.56c5.31-3,10.34-4.62,15.07-4.61a22.48,22.48,0,0,1,13.07,4.16,39,39,0,0,1,10.8,12.29,88.17,88.17,0,0,1,8.19,19.07,151.89,151.89,0,0,1,5.15,24,199.78,199.78,0,0,1,1.77,26.92,192.32,192.32,0,0,1-3.85,40.16c-2.46,11.44-5.54,23.13-10.91,33.82-4.72,9.41-10.34,16.58-16.88,21.4a27.69,27.69,0,0,1-21.6,5.14q-17.35-3-34.67-6.23v76.8c0,4.62-1.74,5.85-5.2,3.66Q143.32,494.14,127,482.77a12.1,12.1,0,0,1-3.54-3.77,9.35,9.35,0,0,1-1.32-4.9ZM207.33,338a52.3,52.3,0,0,0-1.22-11.39,30.9,30.9,0,0,0-3.53-9.38,14.63,14.63,0,0,0-5.6-5.59,9,9,0,0,0-7.42-.34c-9.74,3.26-14.58,4.94-24.19,8.39v53.88c9.61-.74,14.45-1.1,24.19-1.8A12.35,12.35,0,0,0,197,368.5a24.29,24.29,0,0,0,5.6-7.63,44.38,44.38,0,0,0,3.47-10.65A61.62,61.62,0,0,0,207.33,338Z" transform="translate(-122.09 -122.64)"/><path class="cls-1" d="M370.52,185.16a33,33,0,0,1,1.36-10.22c.9-2.73,2.26-4.41,4.08-5q39.54-12.67,79.82-22.37a21.31,21.31,0,0,1,16.42,2.56q7.69,4.62,14.17,14.62A119.07,119.07,0,0,1,498,189.6a245.58,245.58,0,0,1,8.83,32.72c2.52,12.37,4.22,25.22,5.53,37.92a373.34,373.34,0,0,1,1.91,40.82A451.42,451.42,0,0,1,510.18,361c-2.46,17.32-5.93,35.24-11.76,51.69-4.43,12.5-9.78,25-18.25,35.61-7,8.81-14.93,12.92-23.5,12.53q-19-1.33-38.05-2.92V606.16q0,13.4-5.75,11.78Q394.3,612.67,376,606.67c-1.65-.54-3-2-4-4.38a26.86,26.86,0,0,1-1.48-10Zm94.1,118.62a143.91,143.91,0,0,0-1.33-19.48,91.63,91.63,0,0,0-3.85-17,37.75,37.75,0,0,0-6.11-11.74c-2.4-2.92-5.1-4.15-8.12-3.73-10.67,1.51-16,2.31-26.59,4v104c10.61-.36,15.92-.53,26.59-.86,3-.09,5.75-1.72,8.18-4.93a41.52,41.52,0,0,0,6.12-12.41,101.53,101.53,0,0,0,3.78-17.48A153.35,153.35,0,0,0,464.62,303.78Z" transform="translate(-122.09 -122.64)"/><path class="cls-1" d="M590.77,139.7a22.16,22.16,0,0,1,.83-4.67,30.14,30.14,0,0,1,1.74-4.74,15.19,15.19,0,0,1,2.18-3.55,3.53,3.53,0,0,1,2.18-1.42q16.44-1.23,32.89-2.1,2.19-.1,3.73,3.59a52.58,52.58,0,0,1,2.32,6.52c1.28,8.09,1.93,12.15,3.21,20.25q33.92,242.1,67.56,484.23c.69,4.76.56,8.63-.38,11.64s-2.58,4.56-4.89,4.62q-18.46.51-36.94.31a5.06,5.06,0,0,1-4.57-3.1Q659,648.21,658.12,641q-2.54-18.22-5-36.44t-4.88-36.44q-34.15-.81-68.22-2.95-2.44,17.65-4.94,35.32c-1.66,11.72-3.36,23.48-4.93,35.16-1.14,8.49-3.29,12.61-6.53,12.23q-18.9-2.2-37.69-5.16c-1.62-.26-2.95-1.62-4-4.06s-1.25-5.89-.57-10.35Q557.23,384.18,590.77,139.7Zm23.37,150.59q-2.62,19.57-4.95,39.2-2.52,21.15-4.94,42.32-2.41,21-5,42-2.35,19.35-4.94,38.7,19.73.41,39.45.62Q624,371.71,614.14,290.29Z" transform="translate(-122.09 -122.64)"/><path class="cls-1" d="M791.3,320.42Q806.51,232.17,822.15,144q.76-4,1.28-5.82a10,10,0,0,1,1-2.58,1.66,1.66,0,0,1,1.08-.86,3.19,3.19,0,0,0,1.34-.65c16.37,2.62,32.68,5.6,48.89,9.07.59.12,1.08.72,1.46,1.8a10.53,10.53,0,0,1,.57,3.57,20.73,20.73,0,0,1-1.77,7.89Q844.6,295.6,815.77,435.35V628q0,16.2-5.85,17-19.11,2.69-38.3,4.61-2.55.26-4-4t-1.41-12V435.74Q735.49,286.43,705.48,137a26.67,26.67,0,0,1-1.67-9,12.3,12.3,0,0,1,.51-3.74c.34-1.06.81-1.59,1.42-1.57,16.51.54,33,1.43,49.48,2.82a6.06,6.06,0,0,0,1.41,1,2.64,2.64,0,0,1,1,1.15,13.58,13.58,0,0,1,1,2.91c.35,1.33.82,3.44,1.42,6.31Q775.58,228.65,791.3,320.42Z" transform="translate(-122.09 -122.64)"/><path class="cls-1" d="M943.24,172.05a14.19,14.19,0,0,1,.81-3.77,16.79,16.79,0,0,1,1.69-3.51,7.81,7.81,0,0,1,2.11-2.3A2.55,2.55,0,0,1,950,162q15.94,4.84,31.74,10,2.1.7,3.58,4.25a57,57,0,0,1,2.22,6.08c1.23,7,1.85,10.46,3.08,17.39,19.39,122.18,40,244.19,64,365.56a15.4,15.4,0,0,1-.36,8.4,8.16,8.16,0,0,1-4.59,5.12q-17.3,7.3-34.87,13.91-2.81,1.07-4.34-.73T1008,585q-2.44-13.37-4.78-26.88t-4.66-27.4q-32.79,7.72-65.84,14.08-2.37,16.35-4.81,32.69c-1.65,11-3.3,22-4.83,33-1.11,8-3.21,12.51-6.39,13.33q-18.5,4.77-37.16,8.82c-1.6.34-2.93-.47-4-2.45s-1.25-5.26-.58-9.8C896.53,470.76,918.88,321.25,943.24,172.05Zm22.63,134.11c-1.71,10.8-3.27,21.65-4.77,32.46-1.65,11.85-3.22,23.76-4.79,35.64s-3.15,24-4.79,35.94c-1.53,11.21-3.1,22.45-4.79,33.65q19-1.37,38.07-2.94Q975.11,373.56,965.87,306.16Z" transform="translate(-122.09 -122.64)"/><path class="cls-1" d="M1084.78,223.73c0-3.12.5-5.41,1.49-6.82s2.36-1.7,4.1-.87a1047.06,1047.06,0,0,1,133.49,77.49,12.87,12.87,0,0,1,3.59,3.87,9.36,9.36,0,0,1,1.49,5.08V327.3c0,.66,0,1.26,0,1.82a5.28,5.28,0,0,1-.61,1.94c-38.53,34.88-61.22,87.92-81.93,134.3q39.3-12,77.84-26.19a4.09,4.09,0,0,1,3.54,0c1,.54,1.43,1.73,1.43,3.61v30.54a12.1,12.1,0,0,1-1.38,5,11,11,0,0,1-3.59,4.49,1048.24,1048.24,0,0,1-133.46,77.54,2.88,2.88,0,0,1-4-1.15c-1.07-1.53-1.61-4.13-1.61-7.74V500.86a20.79,20.79,0,0,1,.83-6.36c23.31-60.17,47.74-122.18,84.31-175.79q-39.67-12.6-79.91-23.09a6.37,6.37,0,0,1-4.1-3.74c-1-2.05-1.49-5.12-1.49-9.19Z" transform="translate(-122.09 -122.64)"/><path class="cls-1" d="M285.18,305a1,1,0,0,1,1.07-1.55,61.15,61.15,0,0,1,13.56,6.69c13.71,9.06,23.32,21.35,28.22,37.1a31.66,31.66,0,0,1-1.26,23.22,22.3,22.3,0,0,1-4.83,6.65c-3.32,3.14-7.43,3.27-10.84.22a26.08,26.08,0,0,1-5.57-7.28c-3.22-6.16-4.29-12.91-4.49-19.81a81,81,0,0,0-4-24.32A67.59,67.59,0,0,0,285.18,305Z" transform="translate(-122.09 -122.64)"/><path class="cls-1" d="M326.35,297.62a4.12,4.12,0,0,1-4.43-6.46,149.72,149.72,0,0,0,8.53-12.94,16.41,16.41,0,0,1,8.53-7.08c6.2-2.23,10.65,1.56,9.5,8.06a14,14,0,0,1-4.06,7.94A45.43,45.43,0,0,1,326.35,297.62Z" transform="translate(-122.09 -122.64)"/><path class="cls-1" d="M294.31,294.38a2.85,2.85,0,0,1-4.43-3,123.13,123.13,0,0,0,2.66-13.78c1.41-11.92-.85-23.61-3.71-35.16-2.19-8.8-5.39-17.53-3.92-26.75.81-5.11,2-10.44,4.34-15,6-11.5,17.41-13,26.41-3.7a37.37,37.37,0,0,1,10.74,29.3c-1.62,25-9.84,47.34-28.45,65a36,36,0,0,1-3.56,3Z" transform="translate(-122.09 -122.64)"/></svg>